:FULLY-SPECIFIED
:FORCE-ALL-JOINTS-BE-3DOF
:DEGREES
679
root 5.38365 16.3875 0.772578 16.4144 -21.4672 0.839305
lfemur -31.1199 24.4427 -12.644
ltibia 89.114 -0 0
lfoot 4.45565 -3.74692 -0.000525534
ltoes 6.88498 -0 0
rfemur -38.4234 -15.0255 25.6525
rtibia 55.3588 -0 0
rfoot -17.2338 -5.61787 0.49485
rtoes 2.28366 -0 0
lowerback -0.163767 -6.08597 -0.96423
upperback -1.97892 -8.15188 0.365945
thorax -1.7513 -4.05619 0.979599
lowerneck -9.45984 -4.43095 0.290322
upperneck 2.09823 -6.10804 3.15219
head 2.39801 -2.95064 0.655122
lclavicle 7.38515e-15 -3.74396e-16 1.78475e-30
lhumerus 15.5442 -64.7512 57.6669
lradius 85.2044 -0 0
lwrist 28.32 0 0
lhand -13.8154 -1.36823 0.0837601
lfingers 7.12502 -0 0
lthumb 12.3053 28.2133 0.0751579
rclavicle 7.38515e-15 -3.74396e-16 1.78475e-30
rhumerus -48.3794 -11.3408 -43.9324
rradius 73.0901 -0 0
rwrist -18.32 0 0
rhand -28.815 -46.9683 -0.0634361
rfingers 7.12502 -0 0
rthumb -2.17269 -76.9222 -0.0623218
680
root 5.37588 16.5389 0.963318 16.2108 -23.4988 0.899183
lfemur -32.2563 23.4503 -9.90518
ltibia 92.0619 -0 0
lfoot 4.83603 -3.75063 -0.00063499
ltoes 8.75189 -0 0
rfemur -35.9018 -14.2017 24.4345
rtibia 51.7061 -0 0
rfoot -15.215 -4.96219 0.598502
rtoes 2.28378 -0 0
lowerback 0.0691281 -5.9573 -1.07682
upperback -1.96057 -7.99113 0.147579
thorax -1.88108 -3.97326 0.839289
lowerneck -9.21866 -4.45026 0.266403
upperneck 2.25742 -6.1418 3.32177
head 2.41574 -2.96366 0.715719
lclavicle 4.94751e-15 1.59027e-15 2.15637e-30
lhumerus 19.5745 -62.3536 51.7183
lradius 84.8984 -0 0
lwrist 28.4455 0 0
lhand -14.4129 -1.74442 0.101216
lfingers 7.12502 -0 0
lthumb 11.729 27.8634 0.0908178
rclavicle 4.94751e-15 1.59027e-15 2.15637e-30
rhumerus -47.5614 -10.9627 -41.8273
rradius 75.2209 -0 0
rwrist -17.7647 0 0
rhand -29.2144 -46.5423 -0.0766515
rfingers 7.12502 -0 0
rthumb -2.55838 -76.4887 -0.0753049
681
root 5.36758 16.7015 1.16824 15.9858 -25.6813 0.973527
lfemur -33.5237 22.4407 -6.96136
ltibia 95.229 -0 0
lfoot 5.24469 -3.75461 -0.000725158
ltoes 10.7576 -0 0
rfemur -33.2236 -13.2601 23.1737
rtibia 47.7818 -0 0
rfoot -13.045 -4.25416 0.684041
rtoes 2.28391 -0 0
lowerback 0.318998 -5.81857 -1.19717
upperback -1.94154 -7.81836 -0.0868708
thorax -2.02072 -3.88452 0.688353
lowerneck -8.95954 -4.47088 0.240614
upperneck 2.42834 -6.17859 3.50386
head 2.43477 -2.97766 0.780816
lclavicle 2.32867e-15 3.70097e-15 2.46249e-30
lhumerus 22.9995 -59.5985 46.2094
lradius 84.5697 -0 0
lwrist 28.5803 0 0
lhand -15.0548 -2.14869 0.115596
lfingers 7.12502 -0 0
lthumb 11.1096 27.4874 0.103722
rclavicle 2.32867e-15 3.70097e-15 2.46249e-30
rhumerus -46.6686 -10.5898 -39.5628
rradius 77.5102 -0 0
rwrist -17.168 0 0
rhand -29.6436 -46.0844 -0.0875392
rfingers 7.12502 -0 0
rthumb -2.97286 -76.0229 -0.0860013
682
root 5.3589 16.8722 1.38328 15.7414 -27.9713 1.06354
lfemur -34.9025 21.4472 -3.86875
ltibia 98.5525 -0 0
lfoot 5.67356 -3.75879 -0.000789227
ltoes 12.8624 -0 0
rfemur -30.4475 -12.212 21.9056
rtibia 43.6636 -0 0
rfoot -10.7667 -3.50821 0.744906
rtoes 2.28404 -0 0
lowerback 0.580839 -5.67242 -1.32279
upperback -1.92236 -7.63696 -0.332747
thorax -2.1675 -3.79178 0.529739
lowerneck -8.68759 -4.49241 0.213449
upperneck 2.60759 -6.21777 3.69484
head 2.45472 -2.99238 0.849126
lclavicle -4.19604e-16 5.916e-15 2.67999e-30
lhumerus 25.7829 -56.5601 41.2088
lradius 84.2247 -0 0
lwrist 28.7217 0 0
lhand -15.7285 -2.57308 0.125814
lfingers 7.12502 -0 0
lthumb 10.4597 27.0927 0.11289
rclavicle -4.19604e-16 5.916e-15 2.67999e-30
rhumerus -45.7175 -10.236 -37.183
rradius 79.9126 -0 0
rwrist -16.5418 0 0
rhand -30.0941 -45.6039 -0.0952761
rfingers 7.12502 -0 0
rthumb -3.40791 -75.534 -0.0936022
683
root 5.35001 17.0477 1.6044 15.4801 -30.3256 1.17
lfemur -36.3687 20.4992 -0.683683
ltibia 101.97 -0 0
lfoot 6.11455 -3.76309 -0.000822472
ltoes 15.0267 -0 0
rfemur -27.6295 -11.0735 20.6624
rtibia 39.429 -0 0
rfoot -8.42344 -2.73928 0.776515
rtoes 2.28418 -0 0
lowerback 0.849678 -5.52154 -1.45122
upperback -1.90346 -7.45034 -0.585401
thorax -2.31868 -3.69685 0.366413
lowerneck -8.40793 -4.5144 0.185409
upperneck 2.79179 -6.25869 3.89111
head 2.47521 -3.00754 0.919363
lclavicle -3.24554e-15 8.19362e-15 2.79284e-30
lhumerus 27.9583 -53.3216 36.7156
lradius 83.87 -0 0
lwrist 28.8672 0 0
lhand -16.4213 -3.00958 0.131117
lfingers 7.12502 -0 0
lthumb 9.79125 26.6867 0.117648
rclavicle -3.24554e-15 8.19362e-15 2.79284e-30
rhumerus -44.7258 -9.91312 -34.7327
rradius 82.3829 -0 0
rwrist -15.898 0 0
rhand -30.5574 -45.1097 -0.0992909
rfingers 7.12502 -0 0
rthumb -3.85531 -75.0312 -0.0975464
684
root 5.34109 17.2248 1.82755 15.2044 -32.701 1.29312
lfemur -37.894 19.6212 2.53693
ltibia 105.419 -0 0
lfoot 6.55958 -3.76743 -0.000822472
ltoes 17.2108 -0 0
rfemur -24.8226 -9.86564 19.4716
rtibia 35.1557 -0 0
rfoot -6.05845 -1.96264 0.776515
rtoes 2.28432 -0 0
lowerback 1.12057 -5.36867 -1.58007
upperback -1.88523 -7.26194 -0.8402
thorax -2.47151 -3.60149 0.201354
lowerneck -8.12569 -4.53646 0.157003
upperneck 2.97755 -6.30061 4.08906
head 2.49588 -3.02286 0.990238
lclavicle -6.09736e-15 1.04921e-14 2.79284e-30
lhumerus 29.594 -49.9691 32.6957
lradius 83.5121 -0 0
lwrist 29.0139 0 0
lhand -17.1205 -3.45009 0.131117
lfingers 7.12502 -0 0
lthumb 9.11674 26.2771 0.117648
rclavicle -6.09736e-15 1.04921e-14 2.79284e-30
rhumerus -43.7127 -9.6299 -32.2568
rradius 84.8758 -0 0
rwrist -15.2481 0 0
rhand -31.0251 -44.6109 -0.0992909
rfingers 7.12502 -0 0
rthumb -4.30684 -74.5238 -0.0975464
685
root 5.33229 17.4003 2.04867 14.9173 -35.0543 1.43232
lfemur -39.4469 18.832 5.73539
ltibia 108.836 -0 0
lfoot 7.00057 -3.77173 -0.000789227
ltoes 19.3751 -0 0
rfemur -22.0764 -8.61394 18.3561
rtibia 30.9211 -0 0
rfoot -3.71516 -1.19371 0.744906
rtoes 2.28446 -0 0
lowerback 1.38859 -5.2166 -1.707
upperback -1.86801 -7.07517 -1.09252
thorax -2.6232 -3.50742 0.0375589
lowerneck -7.846 -4.55819 0.128746
upperneck 3.16149 -6.34279 4.28509
head 2.51634 -3.03807 1.06047
lclavicle -8.9233e-15 1.27697e-14 2.67999e-30
lhumerus 30.7708 -46.5878 29.1052
lradius 83.1574 -0 0
lwrist 29.1594 0 0
lhand -17.8133 -3.88659 0.125814
lfingers 7.12502 -0 0
lthumb 8.44834 25.8711 0.11289
rclavicle -8.9233e-15 1.27697e-14 2.67999e-30
rhumerus -42.6983 -9.39208 -29.8006
rradius 87.3461 -0 0
rwrist -14.6043 0 0
rhand -31.4884 -44.1167 -0.0952761
rfingers 7.12502 -0 0
rthumb -4.75424 -74.021 -0.0936022
686
root 5.32376 17.571 2.26371 14.6229 -37.3424 1.58599
lfemur -40.9929 18.1442 8.85304
ltibia 112.16 -0 0
lfoot 7.42944 -3.77591 -0.000725158
ltoes 21.4799 -0 0
rfemur -19.4379 -7.34769 17.3338
rtibia 26.8029 -0 0
rfoot -1.43689 -0.447757 0.684041
rtoes 2.28459 -0 0
lowerback 1.64886 -5.06814 -1.82973
upperback -1.85206 -6.89347 -1.33776
thorax -2.77097 -3.41636 -0.121957
lowerneck -7.57397 -4.57918 0.101164
upperneck 3.34025 -6.3844 4.47562
head 2.53622 -3.05289 1.12876
lclavicle -1.16716e-14 1.49847e-14 2.46249e-30
lhumerus 31.5695 -43.2601 25.9038
lradius 82.8124 -0 0
lwrist 29.3008 0 0
lhand -18.487 -4.31099 0.115596
lfingers 7.12502 -0 0
lthumb 7.79838 25.4764 0.103722
rclavicle -1.16716e-14 1.49847e-14 2.46249e-30
rhumerus -41.7033 -9.20215 -27.4097
rradius 89.7485 -0 0
rwrist -13.9781 0 0
rhand -31.9389 -43.6362 -0.0875392
rfingers 7.12502 -0 0
rthumb -5.18929 -73.5321 -0.0860013
687
root 5.31568 17.7336 2.46863 14.3261 -39.522 1.7512
lfemur -42.4952 17.564 11.8304
ltibia 115.327 -0 0
lfoot 7.8381 -3.77989 -0.00063499
ltoes 23.4856 -0 0
rfemur -16.9518 -6.09916 16.4177
rtibia 22.8786 -0 0
rfoot 0.733147 0.260269 0.598502
rtoes 2.28472 -0 0
lowerback 1.89651 -4.92616 -1.94602
upperback -1.8376 -6.72026 -1.57131
thorax -2.912 -3.32997 -0.274163
lowerneck -7.31474 -4.59906 0.0747873
upperneck 3.51047 -6.4246 4.65706
head 2.55515 -3.06703 1.19383
lclavicle -1.42904e-14 1.70955e-14 2.15637e-30
lhumerus 32.0661 -40.0651 23.0606
lradius 82.4837 -0 0
lwrist 29.4356 0 0
lhand -19.1289 -4.71526 0.101216
lfingers 7.12502 -0 0
lthumb 7.17901 25.1004 0.0908178
rclavicle -1.42904e-14 1.70955e-14 2.15637e-30
rhumerus -40.7489 -9.05944 -25.1296
rradius 92.0378 -0 0
rwrist -13.3814 0 0
rhand -32.3681 -43.1783 -0.0766515
rfingers 7.12502 -0 0
rthumb -5.60376 -73.0663 -0.0753049
688
root 5.30818 17.885 2.65936 14.0334 -41.5502 1.92343
lfemur -43.9162 17.0915 14.6072
ltibia 118.275 -0 0
lfoot 8.21848 -3.7836 -0.000525534
ltoes 25.3526 -0 0
rfemur -14.6607 -4.90271 15.6163
rtibia 19.2259 -0 0
rfoot 2.75191 0.91595 0.49485
rtoes 2.28484 -0 0
lowerback 2.12671 -4.79355 -2.05369
upperback -1.82479 -6.55899 -1.78858
thorax -3.04346 -3.2499 -0.416015
lowerneck -7.07344 -4.61746 0.0501546
upperneck 3.66881 -6.4625 4.82585
head 2.57275 -3.08021 1.2544
lclavicle -1.67281e-14 1.90601e-14 1.78475e-30
lhumerus 32.3299 -37.0783 20.5571
lradius 82.1777 -0 0
lwrist 29.5611 0 0
lhand -19.7264 -5.09144 0.0837601
lfingers 7.12502 -0 0
lthumb 6.60268 24.7505 0.0751579
rclavicle -1.67281e-14 1.90601e-14 1.78475e-30
rhumerus -39.8564 -8.96041 -23.0062
rradius 94.1686 -0 0
rwrist -12.8261 0 0
rhand -32.7675 -42.7523 -0.0634361
rfingers 7.12502 -0 0
rthumb -5.98946 -72.6328 -0.0623218
689
root 5.30143 18.022 2.83187 13.7533 -43.384 2.09635
lfemur -45.2177 16.7212 17.1229
ltibia 120.941 -0 0
lfoot 8.56251 -3.78695 -0.000405347
ltoes 27.041 -0 0
rfemur -12.6063 -3.79404 14.9344
rtibia 15.9223 -0 0
rfoot 4.57657 1.50548 0.381271
rtoes 2.28495 -0 0
lowerback 2.33466 -4.67326 -2.15058
upperback -1.81373 -6.41309 -1.98498
thorax -3.16252 -3.17775 -0.544457
lowerneck -6.85519 -4.63401 0.0278093
upperneck 3.81192 -6.49718 4.97843
head 2.58866 -3.09215 1.30917
lclavicle -1.89327e-14 2.0837e-14 1.37666e-30
lhumerus 32.4239 -34.3716 18.3869
lradius 81.901 -0 0
lwrist 29.6746 0 0
lhand -20.2666 -5.43143 0.0645995
lfingers 7.12502 -0 0
lthumb 6.08155 24.4343 0.0579657
rclavicle -1.89327e-14 2.0837e-14 1.37666e-30
rhumerus -39.0466 -8.89902 -21.0849
rradius 96.0958 -0 0
rwrist -12.3238 0 0
rhand -33.1287 -42.367 -0.0489267
rfingers 7.12502 -0 0
rthumb -6.33819 -72.2409 -0.0480673
